<svg id="Layer_1" data-name="Layer 1" xmlns="http://www.w3.org/2000/svg" xmlns:xlink="http://www.w3.org/1999/xlink" viewBox="0 0 277.94 277.94"><defs><style>.cls-1{fill:url(#linear-gradient);}.cls-2{fill:#fff;}</style><linearGradient id="linear-gradient" y1="141.03" x2="277.94" y2="141.03" gradientTransform="matrix(1, 0, 0, -1, 0, 280)" gradientUnits="userSpaceOnUse"><stop offset="0" stop-color="#cbff54"/><stop offset="1" stop-color="#00b38c"/></linearGradient></defs><title>classroom-icon-hover</title><circle class="cls-1" cx="138.97" cy="138.97" r="138.97"/><path class="cls-2" d="M137.68,75.73H183.8c.76-.06,1,.26,1,1V99c0,5.51-.07,11,0,16.52.06,3.07,0,6.13.06,9.2,0,2.75,0,5.52-.06,8.29,0,.87-.47.89-1.1.89H114c-5.64,0-11.29,0-16.93.06a44.07,44.07,0,0,0-5.86,0c-.58.09-.83-.33-.83-.89V77.44c0-1.74,0-1.74,1.73-1.74h45.59Zm-.17,53.47h41.87c1.31,0,1.49-.11,1.35-1.36a41.29,41.29,0,0,1,0-4.45q-.06-4.69,0-9.39V81.86c0-1.47,0-1.48-1.52-1.48H96c-1.5,0-1.5,0-1.5,1.49v44.51a9.37,9.37,0,0,1,.08,1.91c-.17.87.26.9.87.89h2.84Z"/><path class="cls-2" d="M72.6,178.31h9.32c5.86-.08,10.06,4.31,10.68,9.76.47,4.13.13,8.29.19,12.44,0,.71-.29,1-1,1h-4c-.7,0-.94-.28-1-1a30.09,30.09,0,0,0-.17-4.65,8.29,8.29,0,0,0-8.25-6.8c-3.81.14-7.64.12-11.45,0a8.31,8.31,0,0,0-8.39,8.21v3.16c0,.71-.2,1.06-1,1h-4c-.53,0-1-.1-1-.76.08-4.35-.35-8.73.2-13.06a10.53,10.53,0,0,1,10.88-9.39Z"/><path class="cls-2" d="M138.61,178.73h9.13c6.17-.07,10.46,4.72,10.77,10.44.22,3.91,0,7.84.06,11.75,0,.73-.24,1.05-1,1h-3.85c-.77,0-1-.31-1-1a32.52,32.52,0,0,0-.13-3.95,8.12,8.12,0,0,0-8.11-7.4H132.82a8.21,8.21,0,0,0-8.37,8.05V201c0,.62-.23.92-.9.91H119.3c-.47,0-.81-.14-.8-.67.06-4.46-.43-8.95.21-13.36.81-5.64,5.21-9.17,10.87-9.17Z"/><path class="cls-2" d="M203.56,179.08c3.14,0,6.29.1,9.43,0,5.35-.2,9.6,4,10.47,9.16a50.68,50.68,0,0,1,.19,7.39v5.58c0,.74-.24,1-1,1-1.32,0-2.63,0-4,.08-.68,0-1-.23-1-.94V197.8a8.18,8.18,0,0,0-8-8c-4-.06-8-.07-12,0a8.18,8.18,0,0,0-8.18,8.18v3.39c0,.59-.23.84-.86.82h-4c-.78,0-1.09-.25-1.07-1.05v-4.87c0-.43.06-.89-.34-1.22-.07-.06-.17-.21-.15-.23.87-1.08.21-2.25.26-3.39.19-4.11,1.21-7.9,4.8-10.49a8.9,8.9,0,0,1,5.27-1.83h10.14Z"/><path class="cls-2" d="M149.19,157.37c-.09,2,.14,4.06-.15,6.07a10.48,10.48,0,0,1-17.87,6,9.8,9.8,0,0,1-2.95-7.22v-9.43a10.35,10.35,0,0,1,6.92-10,10.46,10.46,0,0,1,13.38,6.32,10.65,10.65,0,0,1,.5,2C149.29,153.25,149.1,155.31,149.19,157.37Z"/><path class="cls-2" d="M81.88,157.91c-.14,2,.28,4.49-.35,6.93a10.45,10.45,0,0,1-20.41-1A78.11,78.11,0,0,1,61,151.7a9.06,9.06,0,0,1,1.08-3.77,10.46,10.46,0,0,1,19.79,4.55Z"/><path class="cls-2" d="M72.88,173.86H87.49a9.56,9.56,0,0,1,9.81,8.54c.43,3.15.12,6.34.18,9.52v8.21c0,.52,0,1.11-.58,1.28a4.28,4.28,0,0,1-2.3,0c-.28-.08-.13-.41-.12-.63.2-5.07.1-10.14.06-15.21a8.62,8.62,0,0,0-5.92-8.16,7.53,7.53,0,0,0-2.41-.26c-9,0-17.91.09-26.87,0a8.4,8.4,0,0,0-8.27,8.06c-.11,5.14,0,10.28,0,15.41,0,.81-.21,1-.93,1h-.41c-1.52,0-1.62-.1-1.62-1.61V183.79a10,10,0,0,1,6.77-9.52,8.84,8.84,0,0,1,2.89-.42Z"/><path class="cls-2" d="M138.73,174.28c4.7,0,9.4.11,14.09,0,6.56-.18,10.35,4.56,10.51,10.19.15,5.37,0,10.75,0,16.12,0,1.14-.25,1.36-1.38,1.38h-1.21c-.31,0-.44-.1-.42-.5a149.54,149.54,0,0,0-.07-16.4,8.37,8.37,0,0,0-8.25-7.51q-13.33.21-26.67,0a8.36,8.36,0,0,0-8.38,7.7c-.37,5.4-.21,10.8-.08,16.2,0,.17.1.4-.1.44a5,5,0,0,1-2.3,0c-.63-.19-.59-.84-.59-1.38,0-5.17-.07-10.34,0-15.5.07-4.41,1.8-7.93,6-9.93a9.06,9.06,0,0,1,4-.75C128.79,174.27,133.76,174.28,138.73,174.28Z"/><path class="cls-2" d="M178,200.23a2.89,2.89,0,0,0,1-2.67V185.5a11.27,11.27,0,0,1,2.52-7.62,8.48,8.48,0,0,1,6.59-3.25c10.21,0,20.41.07,30.62,0a9.63,9.63,0,0,1,9.39,7.82,11.46,11.46,0,0,1,.24,2.41v15.82c0,.48.18,1.12-.39,1.37a4.62,4.62,0,0,1-2.39.09c-.31,0-.14-.39-.14-.61,0-5.2.05-10.41,0-15.61a8.46,8.46,0,0,0-6.5-8,7.85,7.85,0,0,0-1.81-.13c-8.89,0-17.78.09-26.66,0a8.6,8.6,0,0,0-8.32,7,41.18,41.18,0,0,0-.2,7.28c0,3.21-.13,6.42.06,9.62,0,.12,0,.35,0,.36a5.36,5.36,0,0,1-2.39.09c-.63-.15-.61-.8-.55-1.37S179.08,199.48,178,200.23Z"/><path class="cls-2" d="M106.53,168.87H88.2c-1.35,0-1.35,0-1.35-1.36v-3.34c0-.55.21-.8.78-.79h36.68c1.75,0,1.75,0,1.76,1.71v2.73c0,.9-.23,1.11-1.1,1.1C118.88,168.86,112.68,168.88,106.53,168.87Z"/><path class="cls-2" d="M171.39,168.87H153.14c-1.32,0-1.34,0-1.35-1.37v-3.15c0-.68.27-1,1-1h36.59c1.69,0,1.69,0,1.69,1.65v2.74c0,.91-.33,1.15-1.19,1.15h-15.1Z"/><path class="cls-2" d="M223,168.87h-6.08c-.76,0-1.11-.23-1.08-1v-3.45c0-.72.23-1,1-1h12.37c.74,0,1,.29,1,1v3.64c0,.7-.26.87-.9.87H223Z"/><path class="cls-2" d="M53.82,168.87H49.06c-.69,0-1-.24-1-1v-3.64c0-.65.24-.94.88-.94h9.82c.53,0,.81.18.8.77v3.85c0,.65-.28.91-.91.9Z"/><path class="cls-2" d="M137.61,83.14h40c1,0,1.06.47,1,1.23v40.86c0,1-.33,1.29-1.29,1.27-2.33,0-4.67-.1-7,0s-4.75-.11-7.13,0-4.94,0-7.4,0h-58c-.87,0-1.19-.31-1.19-1.19V84.15c0-.81.28-1,1.07-1Zm-.1,30.7h34.88c2.65,0,2.25.29,2.28-2.24,0-1.58,0-1.59-1.62-1.59H102.88c-2.72,0-2.31-.35-2.34,2.39,0,1.43,0,1.43,1.47,1.43Zm0-18.63H103.24c-3.16,0-2.69-.63-2.73,2.92v.1c0,.55.27.79.81.78h70.86c2.62,0,2.3.35,2.32-2.31,0-1.5,0-1.5-1.53-1.5Z"/><path class="cls-2" d="M213.86,157.39c-.09,2,.14,4.06-.15,6.07a10.48,10.48,0,0,1-17.87,6,9.82,9.82,0,0,1-3-7.22v-9.43a10.35,10.35,0,0,1,6.92-10,10.46,10.46,0,0,1,13.38,6.32,10.85,10.85,0,0,1,.5,2C214,153.27,213.77,155.33,213.86,157.39Z"/></svg>