<svg id="Layer_1" data-name="Layer 1" xmlns="http://www.w3.org/2000/svg" xmlns:xlink="http://www.w3.org/1999/xlink" viewBox="0 0 277.94 277.94"><defs><style>.cls-1{fill:url(#linear-gradient);}.cls-2{fill:#fff;}</style><linearGradient id="linear-gradient" y1="138.97" x2="277.94" y2="138.97" gradientUnits="userSpaceOnUse"><stop offset="0" stop-color="#cbffa8"/><stop offset="1" stop-color="#00b0b0"/></linearGradient></defs><title>classroom-icon</title><circle class="cls-1" cx="138.97" cy="138.97" r="138.97"/><path class="cls-2" d="M148.8,93.25h45c.37,0,.75,0,1.12,0,.76-.06,1,.26,1,1,0,7.44,0,14.87,0,22.31,0,5.51-.07,11,0,16.52.06,3.07,0,6.13.06,9.2.05,2.75,0,5.52-.06,8.29,0,.87-.47.89-1.1.89-3.38,0-6.76,0-10.14,0l-59.58,0c-5.64,0-11.29,0-16.93.06a44.08,44.08,0,0,0-5.86,0c-.58.09-.83-.33-.83-.89,0-.92,0-1.83,0-2.74q0-26.46,0-52.93c0-1.74,0-1.74,1.73-1.74l33.26,0H148.8Zm-.17,53.47v0H190.5c1.31,0,1.49-.11,1.35-1.36a44,44,0,0,1,0-4.45q-.06-4.69,0-9.39,0-16.08,0-32.14c0-1.47,0-1.48-1.52-1.48H107.09c-1.5,0-1.5,0-1.5,1.49q0,22.26,0,44.51a9.49,9.49,0,0,1,.08,1.91c-.17.87.26.9.87.89l2.84,0Z" transform="translate(-11.12 -17.52)"/><path class="cls-2" d="M83.72,195.83c3.11,0,6.21,0,9.32,0,5.86-.08,10.06,4.31,10.68,9.76.47,4.13.13,8.29.19,12.44,0,.71-.29,1-1,1-1.31,0-2.63,0-4,0-.7,0-.94-.28-1-1a30.14,30.14,0,0,0-.17-4.65,8.29,8.29,0,0,0-8.25-6.8c-3.81.14-7.64.12-11.45,0a8.3,8.3,0,0,0-8.39,8.23c0,1,0,2.09,0,3.14,0,.71-.2,1.06-1,1-1.35,0-2.7,0-4,0-.53,0-1-.1-1-.76.08-4.35-.35-8.73.2-13.06a10.53,10.53,0,0,1,10.88-9.39Z" transform="translate(-11.12 -17.52)"/><path class="cls-2" d="M149.73,196.25c3,0,6.09,0,9.13,0,6.17-.07,10.46,4.72,10.77,10.44.22,3.91,0,7.84.06,11.75,0,.73-.24,1.05-1,1-1.28,0-2.57,0-3.85,0-.77,0-1-.31-1-1a32.59,32.59,0,0,0-.13-3.95,8.12,8.12,0,0,0-8.11-7.4c-3.89,0-7.77,0-11.66,0a8.21,8.21,0,0,0-8.37,8.32c0,1,0,2.1,0,3.15,0,.62-.23.92-.9.91-1.41,0-2.83,0-4.25,0-.47,0-.81-.14-.8-.67.06-4.46-.43-8.95.21-13.36.81-5.64,5.21-9.17,10.87-9.17Z" transform="translate(-11.12 -17.52)"/><path class="cls-2" d="M214.68,196.6c3.14,0,6.29.1,9.43,0,5.35-.2,9.6,4,10.47,9.16a50.65,50.65,0,0,1,.19,7.39c0,1.86,0,3.72,0,5.58,0,.74-.24,1-1,1-1.32,0-2.63,0-3.95.08-.68,0-1-.23-1-.94,0-1.18,0-2.36,0-3.55a8.19,8.19,0,0,0-8-8c-4-.06-8-.07-12,0a8.18,8.18,0,0,0-8.18,8.32c0,1.09,0,2.17,0,3.25,0,.59-.23.84-.86.82-1.35,0-2.7,0-4.05,0-.78,0-1.09-.25-1.07-1.05,0-1.62,0-3.25,0-4.87,0-.43.06-.89-.34-1.22-.07-.06-.17-.21-.15-.23.87-1.08.21-2.25.26-3.39.19-4.11,1.21-7.9,4.8-10.49a8.9,8.9,0,0,1,5.27-1.83h10.14Z" transform="translate(-11.12 -17.52)"/><path class="cls-2" d="M160.31,174.89c-.09,2,.14,4.06-.15,6.07a10.48,10.48,0,0,1-17.87,6,9.81,9.81,0,0,1-2.95-7.22c0-3.14,0-6.29,0-9.43a10.35,10.35,0,0,1,6.92-10,10.46,10.46,0,0,1,13.88,8.34C160.41,170.77,160.22,172.83,160.31,174.89Z" transform="translate(-11.12 -17.52)"/><path class="cls-2" d="M225.65,175v4.56a10.43,10.43,0,0,1-10.44,10.56,10.31,10.31,0,0,1-10.44-9.72,65.58,65.58,0,0,1,.09-11.64,10.36,10.36,0,0,1,10.91-9.05,10.5,10.5,0,0,1,9.88,10.42C225.66,171.79,225.65,173.41,225.65,175Z" transform="translate(-11.12 -17.52)"/><path class="cls-2" d="M93,175.43c-.14,2,.28,4.49-.35,6.93a10.45,10.45,0,0,1-20.41-1,78.08,78.08,0,0,1-.11-12.14,9,9,0,0,1,1.08-3.77A10.46,10.46,0,0,1,93,170C93,171.68,93,173.33,93,175.43Z" transform="translate(-11.12 -17.52)"/><path class="cls-2" d="M84,191.38H98.61a9.56,9.56,0,0,1,9.81,8.54c.43,3.15.12,6.34.18,9.52,0,2.73,0,5.47,0,8.21,0,.52,0,1.11-.58,1.28a4.28,4.28,0,0,1-2.3,0c-.28-.08-.13-.41-.12-.63.2-5.07.1-10.14.06-15.21a8.63,8.63,0,0,0-5.92-8.16,7.56,7.56,0,0,0-2.41-.26c-9,0-17.91.09-26.87,0a8.4,8.4,0,0,0-8.27,8.06c-.11,5.14,0,10.28,0,15.41,0,.81-.21,1-.93,1a2.81,2.81,0,0,0-.41,0c-1.52,0-1.62-.1-1.62-1.61,0-5.4,0-10.81,0-16.22A10,10,0,0,1,66,191.79a8.84,8.84,0,0,1,2.89-.42Z" transform="translate(-11.12 -17.52)"/><path class="cls-2" d="M149.85,191.8c4.7,0,9.4.11,14.09,0,6.56-.18,10.35,4.56,10.51,10.19.15,5.37,0,10.75,0,16.12,0,1.14-.25,1.36-1.38,1.38h-1.21c-.31,0-.44-.1-.42-.5a149.53,149.53,0,0,0-.07-16.4,8.37,8.37,0,0,0-8.25-7.51q-13.33.21-26.67,0a8.36,8.36,0,0,0-8.38,7.7c-.37,5.4-.21,10.8-.08,16.2,0,.17.1.4-.1.44a5,5,0,0,1-2.3,0c-.63-.19-.59-.84-.59-1.38,0-5.17-.07-10.34,0-15.5.07-4.41,1.8-7.93,6-9.93a9.12,9.12,0,0,1,3.95-.75C139.91,191.79,144.88,191.8,149.85,191.8Z" transform="translate(-11.12 -17.52)"/><path class="cls-2" d="M189.12,217.75a2.87,2.87,0,0,0,1-2.67c0-4,0-8,0-12.06a11.27,11.27,0,0,1,2.52-7.62,8.48,8.48,0,0,1,6.59-3.25c10.21,0,20.41.07,30.62,0a9.63,9.63,0,0,1,9.39,7.82,11.46,11.46,0,0,1,.24,2.41c0,5.27,0,10.55,0,15.82,0,.48.18,1.12-.39,1.37a4.71,4.71,0,0,1-2.39.09c-.31,0-.14-.39-.14-.61,0-5.2.05-10.41,0-15.61a8.46,8.46,0,0,0-6.5-8,7.85,7.85,0,0,0-1.81-.13c-8.89,0-17.78.09-26.66,0a8.6,8.6,0,0,0-8.32,7,41.18,41.18,0,0,0-.2,7.28c0,3.21-.13,6.42.06,9.62,0,.12,0,.35-.05.36a5.38,5.38,0,0,1-2.39.09c-.63-.15-.61-.8-.55-1.37S190.2,217,189.12,217.75Z" transform="translate(-11.12 -17.52)"/><path class="cls-2" d="M117.65,186.39q-9.16,0-18.33,0c-1.35,0-1.35,0-1.35-1.36,0-1.11,0-2.22,0-3.34,0-.55.21-.8.78-.79s1.15,0,1.73,0h34.95c1.75,0,1.75,0,1.76,1.71,0,.91,0,1.83,0,2.73s-.23,1.11-1.1,1.1C130,186.38,123.8,186.4,117.65,186.39Z" transform="translate(-11.12 -17.52)"/><path class="cls-2" d="M182.51,186.39q-9.13,0-18.25,0c-1.32,0-1.34,0-1.35-1.37,0-1.05,0-2.1,0-3.15,0-.68.27-1,.95-1h36.59c1.69,0,1.69,0,1.69,1.65,0,.91,0,1.83,0,2.74s-.33,1.15-1.19,1.15c-5,0-10.07,0-15.1,0Z" transform="translate(-11.12 -17.52)"/><path class="cls-2" d="M234.12,186.39c-2,0-4.05,0-6.08,0-.76,0-1.11-.23-1.08-1,0-1.15,0-2.3,0-3.45,0-.72.23-1,1-1h12.37c.74,0,1,.29,1,1,0,1.21,0,2.43,0,3.64,0,.7-.26.87-.9.87-2.09,0-4.18,0-6.28,0Z" transform="translate(-11.12 -17.52)"/><path class="cls-2" d="M64.94,186.39c-1.59,0-3.18,0-4.76,0-.69,0-1-.24-1-1,0-1.21,0-2.43,0-3.64,0-.65.24-.94.88-.94h9.82c.53,0,.81.18.8.77,0,1.29,0,2.57,0,3.85,0,.65-.28.91-.91.9Z" transform="translate(-11.12 -17.52)"/><path class="cls-2" d="M148.73,100.66q20,0,40,0c1,0,1.06.47,1,1.23q0,15.78,0,31.54c0,3.1,0,6.21,0,9.32,0,1-.33,1.29-1.29,1.27-2.33-.05-4.67-.1-7,0s-4.75-.11-7.13,0-4.94,0-7.4,0H115.2c-2.1,0-4.19,0-6.29,0-.87,0-1.19-.31-1.19-1.19q0-20.58,0-41.16c0-.81.28-1,1.07-1Q128.76,100.67,148.73,100.66Zm-.1,30.7h34.88c2.65,0,2.25.29,2.28-2.24,0-1.58,0-1.59-1.62-1.59H114c-2.72,0-2.31-.35-2.34,2.39,0,1.43,0,1.43,1.47,1.43Zm0-18.63c-11.42,0-22.85,0-34.27,0-3.16,0-2.69-.63-2.73,2.92,0,0,0,.06,0,.1,0,.55.27.79.81.78.37,0,.74,0,1.11,0h69.75c2.62,0,2.3.35,2.32-2.31,0-1.5,0-1.5-1.53-1.5Z" transform="translate(-11.12 -17.52)"/></svg>