<svg id="Layer_1" data-name="Layer 1" xmlns="http://www.w3.org/2000/svg" xmlns:xlink="http://www.w3.org/1999/xlink" viewBox="0 0 277.94 277.94"><defs><style>.cls-1{fill:url(#linear-gradient);}.cls-2{fill:#fff;}</style><linearGradient id="linear-gradient" y1="138.97" x2="277.94" y2="138.97" gradientUnits="userSpaceOnUse"><stop offset="0" stop-color="#2ac9ff"/><stop offset="1" stop-color="#5977be"/></linearGradient></defs><title>course-icon</title><circle class="cls-1" cx="138.97" cy="138.97" r="138.97"/><path class="cls-2" d="M71,210.25V115.06a13.1,13.1,0,0,1,6.19-8.27,72.39,72.39,0,0,1,8.21-4.24,76.77,76.77,0,0,1,40.9-6,75.48,75.48,0,0,1,21.79,6.36,2.88,2.88,0,0,0,2.34.3c2.72-.94,5.45-1.84,8.2-2.65a1.89,1.89,0,0,0,1.57-2.1c0-2.2,0-4.41,0-6.62.05-7.16,5.09-12.45,12.22-12.54q13.25-.17,26.49,0A12.07,12.07,0,0,1,211,90a57.48,57.48,0,0,1,.15,9.37,2.55,2.55,0,0,0,2,2.92,48,48,0,0,1,9.15,4,12.25,12.25,0,0,1,6.5,11.13q0,44.82,0,89.63a11.8,11.8,0,0,1-.19,2.45,12.21,12.21,0,0,1-14.42,9.61c-6.47-1.09-12.82-2.84-19.34-3.7a77.14,77.14,0,0,0-15.17-1A122.75,122.75,0,0,0,155,219a16.3,16.3,0,0,1-9.94-.24,66,66,0,0,0-17.77-3.46c-13.88-.65-27.53,1.15-41.06,4.1a12.92,12.92,0,0,1-6.39,0C75.11,218,72.39,214.77,71,210.25Zm9.51-47.7V179.5c0,9.08,0,18.17,0,27.26,0,2.79,1.12,3.71,3.71,3.15a202.62,202.62,0,0,1,28.59-4.14c12.11-.85,24,0,35.56,3.9a5.65,5.65,0,0,0,3.45.13c4.6-1.29,9.26-2.29,13.94-3.22a83.74,83.74,0,0,1,27.08-1.16c7.19.93,14.24,2.49,21.33,3.91,4,.81,5.06,0,5.05-4.06q-.09-42.14,0-84.25c0-5.82,0-5.82-5.4-8.12-2.58-1.1-2.59-1.1-2.59,1.72q0,28.33,0,56.68c0,2.21-.16,2.31-2.12,1.35-6.5-3.19-13-6.32-19.47-9.61a8,8,0,0,0-7.9.05c-6.48,3.32-13.05,6.49-19.59,9.71-1.94,1-2.09.88-2.08-1.35,0-5.5.1-11,.11-16.48q0-17.57,0-35.12c0-2.72,0-5.44,0-8.16,0-1-.21-1.52-1.33-1.15-2.58.87-5.27,1.47-7.64,2.84a3.37,3.37,0,0,1-3.68,0,65.29,65.29,0,0,0-36.86-7.55,68.26,68.26,0,0,0-27.57,8.55,4.74,4.74,0,0,0-2.67,4.7C80.55,133.6,80.51,148.08,80.51,162.55Zm121-38.29h0q0-16,0-32c0-2.16-.9-3.23-2.82-3.24q-13.09,0-26.18,0a2.51,2.51,0,0,0-2.58,1.8,6.57,6.57,0,0,0-.23,2.29q0,25.64,0,51.28c0,4.15,0,8.31,0,12.47,0,1.26.35,1.41,1.41.86,2.37-1.23,4.78-2.39,7.17-3.58a15.74,15.74,0,0,1,14.66-.13c2.25,1.12,4.51,2.22,6.77,3.33,1.77.86,1.84.82,1.84-1.17Z" transform="translate(-10.96 -15.52)"/><path class="cls-2" d="M116.16,150.68h16.48c3.16,0,5.17,1.75,5.15,4.44s-2,4.39-5.07,4.39H99.46c-3,0-5-1.83-5-4.46s2-4.37,5.07-4.37Z" transform="translate(-10.96 -15.52)"/><path class="cls-2" d="M116.12,176.79c-5.59,0-11.18,0-16.78,0-2.92,0-4.88-1.79-4.87-4.38s2-4.43,4.89-4.44q16.77,0,33.55,0c2.89,0,4.88,1.88,4.88,4.45s-2,4.36-4.89,4.37C127.31,176.8,121.71,176.79,116.12,176.79Z" transform="translate(-10.96 -15.52)"/><path class="cls-2" d="M116.13,141.68H99.51c-3.07,0-5-1.74-5-4.38s2-4.44,5-4.45q16.62,0,33.24,0c3.95,0,6.27,3.53,4.43,6.65a4.28,4.28,0,0,1-4,2.18C127.52,141.66,121.82,141.67,116.13,141.68Z" transform="translate(-10.96 -15.52)"/></svg>