<svg id="Layer_1" data-name="Layer 1" xmlns="http://www.w3.org/2000/svg" xmlns:xlink="http://www.w3.org/1999/xlink" viewBox="0 0 277.94 277.94"><defs><style>.cls-1{fill:url(#linear-gradient);}.cls-2{fill:#fff;}</style><linearGradient id="linear-gradient" y1="138.97" x2="277.94" y2="138.97" gradientUnits="userSpaceOnUse"><stop offset="0" stop-color="#5ff0e6"/><stop offset="1" stop-color="#399cb9"/></linearGradient></defs><title>student-icon</title><circle class="cls-1" cx="138.97" cy="138.97" r="138.97"/><path class="cls-2" d="M150,226.48H85.82c-3.34,0-3.34,0-3.23-3.4.5-14.13,12-26.91,26.79-29.84,5.93-1.17,11.94-1.88,17.63-4.16,3.17-1.26,5.36-2.87,5.16-6.62a23.89,23.89,0,0,1,.31-2.88c.29-3.59,0-6.79-2.72-9.79-3.37-3.69-3.26-8.82-3.94-13.51-.2-1.38-.38-2.39-1.93-2.92s-2-2-2.45-3.42c-1-3.25-2-6.5-2.67-9.81-.57-2.6-1-5.32,1.47-7.41.92-.8.14-1.66,0-2.45-1.65-7-2.53-14-1-21.11a29,29,0,0,1,27-22.58c7.73-.45,15.22.31,21.93,4.52,11.05,6.94,14.6,17.33,13.4,29.8a45.5,45.5,0,0,1-1.78,10.23,1.38,1.38,0,0,0,.33,1.73c2.16,1.87,2,4.38,1.44,6.75-.77,3.54-1.81,7-2.82,10.51-.46,1.59-1.24,3-3,3.54-1,.27-1.13.94-1.24,1.81-.26,2.16-.65,4.3-.93,6.46a17.33,17.33,0,0,1-4.59,10,4.68,4.68,0,0,0-1.3,3.49c0,2.83.23,5.64.51,8.46a5.09,5.09,0,0,0,3.37,4.56,68.45,68.45,0,0,0,16.82,4.38c14.77,2.32,25.4,11.83,28.53,25.42a34.87,34.87,0,0,1,.79,5.5c.15,2-.45,2.95-2.67,2.83-3.14-.15-6.3,0-9.45,0Z" transform="translate(-11.12 -17.52)"/><path class="cls-2" d="M239,203.21c-5.74,0-11.48,0-17.21,0a3.16,3.16,0,0,1-2.92-1.62c-5.72-8.07-12.91-13.92-23.19-15.05-1.27-.14-3.38.4-3.61-1.57-.24-2.13,1.76-2.64,3.39-3.14,2.69-.83,5.44-1.5,8.12-2.41,2.33-.79,3.74-5.57,2.37-7.6-.49-.73-1.26-.6-2-.69-4-.53-8-1.11-11.7-2.88-1.86-.89-2.57-1.79-1.32-3.87,2.78-4.64,3.47-9.87,3.6-15.15s0-10.82,0-16.24a28.21,28.21,0,0,1,2.06-10.39c3.23-8.07,9.56-11.93,17.92-12.73a32.18,32.18,0,0,1,8.71.17C233.86,112,240,119.41,241,130.69c.52,6.08-.2,12.1-.08,18.15.13,5.79.69,11.46,4,16.48,1,1.47,0,2-1,2.59a24.7,24.7,0,0,1-11.68,2.72c-2.4,0-3,.86-3,3.12.11,4.93.46,5.65,5.23,6.93,4.22,1.13,8.42,2.25,12.53,3.72,5.9,2.11,11.84,10.55,11.9,16.78,0,1.67-.73,2-2.19,2C250.75,203.18,244.85,203.2,239,203.21Z" transform="translate(-11.12 -17.52)"/><path class="cls-2" d="M61.11,203.21c-5.73,0-11.47-.09-17.2,0-2.34.06-2.87-1-2.44-2.93,1.71-7.67,5.32-13.78,13.31-16.43,3.91-1.29,7.92-2.22,11.85-3.42s5.67-4.87,4.27-8.75c-.42-1.15-1.37-1-2.22-1a30.69,30.69,0,0,1-11.75-2.5c-1.82-.83-2.41-1.7-1.13-3.64,2.82-4.27,3.37-9.22,3.46-14.16s-.32-9.68-.3-14.52a37.64,37.64,0,0,1,2.13-13.07C64,115,69.89,110.87,78,110a32.4,32.4,0,0,1,11.56.57c8.65,2.15,14.19,8.62,15.6,18,.8,5.31.48,10.64.45,16,0,7.24.25,14.39,4.12,20.84.79,1.32-.1,1.91-1.06,2.46a27.52,27.52,0,0,1-9.2,2.85c-.4.07-.81.07-1.21.12-4.49.61-4.45.61-4.26,5.18a3.24,3.24,0,0,0,2.47,3.41c2.48.72,5,1.45,7.42,2.22a16.61,16.61,0,0,1,2.92,1.12,2.18,2.18,0,0,1,1.32,2.37c-.22,1.2-1.23,1.14-2.09,1.19-10,.66-17.56,5.87-23.33,13.52-2.13,2.84-4.12,3.62-7.32,3.48C70.65,203.05,65.87,203.21,61.11,203.21Z" transform="translate(-11.12 -17.52)"/></svg>