<svg id="Layer_1" data-name="Layer 1" xmlns="http://www.w3.org/2000/svg" xmlns:xlink="http://www.w3.org/1999/xlink" viewBox="0 0 277.94 277.94"><defs><style>.cls-1{fill:url(#linear-gradient);}.cls-2{fill:#fff;}</style><linearGradient id="linear-gradient" y1="138.97" x2="277.94" y2="138.97" gradientUnits="userSpaceOnUse"><stop offset="0" stop-color="#d259ff"/><stop offset="1" stop-color="#6090ff"/></linearGradient></defs><title>teacher-icon</title><circle class="cls-1" cx="138.97" cy="138.97" r="138.97"/><path class="cls-2" d="M257.78,194.32c-1.89,4.72-4.38,6.45-9.42,6.46-14.44,0-28.88,0-43.32.05a2.79,2.79,0,0,1-3.2-2.43c-1.06-3.78-2.3-7.5-3.5-11.24a14.7,14.7,0,0,0-7.73-9c-1.76-.87-1.37-1.51-.22-2.51a19.41,19.41,0,0,1,7.06-3.61c2.53-.81,5-1.71,7.57-2.53.55-.18,1.29-.67,1.72,0s-.16,1.32-.7,1.77a10.42,10.42,0,0,0-3.77,9.55c0,.54-.14,1.26.41,1.54s.91-.45,1.34-.75c.28-.21.52-.47.79-.69,3.69-2.93,4.36-2.82,6.84,1.06a67.82,67.82,0,0,0,8,10.23c1.35,1.43,2.32,1.56,3.74.06a72.73,72.73,0,0,0,8.94-11.66c1.32-2.14,1.87-2.31,4-1a36.5,36.5,0,0,1,3,2.26c.33.25.59.72,1,.57s.38-.7.43-1.1c.41-3.69-.41-7-3.25-9.55a11.22,11.22,0,0,1-1-1.05,1.06,1.06,0,0,1-.21-1.17c.24-.53.72-.4,1.09-.26,4.77,1.76,9.9,2.62,14.24,5.53,3.63,2.43,5.2,6.1,6.06,10.19Z" transform="translate(-11.12 -17.52)"/><path class="cls-2" d="M143.94,200.06c.32-5.94.61-11.51.9-17.08.06-1.12-.65-2-1.1-2.91a53,53,0,0,1-2.13-4.86c2.83,1.12,5.6,2.26,8.63,2.12a15,15,0,0,0,8.63-2.9,23.31,23.31,0,0,1-2.58,5.88,8,8,0,0,0-.81,4.21c.16,5,.06,10.07.06,15.11l.83.09c.53-1.44,1.1-2.87,1.59-4.33,2.12-6.31,4.27-12.61,6.3-18.95.52-1.61,1.15-2.07,2.84-1.46,7.13,2.56,14.07,5.57,21,8.51a7.82,7.82,0,0,1,4.37,4.89c1.74,5.25,3.41,10.53,4.88,15.86,1.4,5.11-2.06,9.64-7.34,9.95-.49,0-1,0-1.47,0q-38.47,0-77,0c-3.61,0-6.44-1.17-8.21-4.42a7,7,0,0,1-.73-5.28q2.19-8.34,5.09-16.46a8,8,0,0,1,4.53-4.73c6.85-2.88,13.67-5.81,20.66-8.34,1.77-.64,2.43-.24,3,1.51,2.33,7.19,4.8,14.35,7.22,21.52C143.36,198.6,143.6,199.16,143.94,200.06Z" transform="translate(-11.12 -17.52)"/><path class="cls-2" d="M246.14,137.11a22.35,22.35,0,0,1-1.69,9.17c-.43,1.11-.71,2.27-1.12,3.39a6.5,6.5,0,0,0,.78,6.57c1.24,1.6.63,2.62-.79,3.6-3.46,2.36-7.44,3.14-11.45,3.86a3,3,0,0,1-.42,0c-3,.35-3,.35-2,3.13,2.1,6.21-1.11,14.3-6.9,17.51a1.73,1.73,0,0,1-2.1-.22,18.47,18.47,0,0,1-7.68-12.77c-.24-1.53.53-2.87,1-4.26,1-3,1-3-2.1-3.42a29.35,29.35,0,0,1-10-2.89c-.62-.33-1.21-.71-1.79-1.09-1.39-.9-1.86-1.93-.72-3.44a6.79,6.79,0,0,0,.85-6.57c-1.41-4.45-3-8.82-2.9-13.67.3-12.09,10.1-23.11,21.85-24.26a25,25,0,0,1,26.84,19.83A24.43,24.43,0,0,1,246.14,137.11Z" transform="translate(-11.12 -17.52)"/><path class="cls-2" d="M170.76,133.35a21,21,0,0,1,0,2.1c-.17,1.63,0,2.8,2.08,3.06,1.47.19,2.12,1.54,2.18,3a18.39,18.39,0,0,1-1.49,8.19,3.9,3.9,0,0,1-3.19,2.72c-1.2.13-1.29,1.17-1.59,2a30.06,30.06,0,0,1-7.36,11.35,22,22,0,0,1-9.87,5.33c-2,.53-3.88-.22-5.69-.94-6.88-2.74-11.14-8-13.93-14.64-.64-1.52-.89-3.24-3.11-3.43-.87-.08-1.46-1.05-1.86-1.88a17.6,17.6,0,0,1-1.71-9,2.75,2.75,0,0,1,2.42-2.79c1.64-.18,1.84-1.06,1.8-2.42-.08-3.35-.32-6.72.59-10,2.87-10.44,12.15-16.35,23.56-15,9.59,1.14,17.14,10,17.24,20.27,0,.7,0,1.4,0,2.1Z" transform="translate(-11.12 -17.52)"/><path class="cls-2" d="M76.22,166.84c5.09,2.36,9.9,2.52,15-.06-4.91,6.52-1.83,13.59-2.34,20.76a2.75,2.75,0,0,0,1.26-2c2-5.84,4-11.67,5.85-17.54.52-1.61,1.19-1.88,2.74-1.32,5.73,2.09,11.33,4.48,17,6.83.5.21,1.24.33,1.29.93.08.8-.78.87-1.32,1.11-1.92.85-3.9,1.57-5.79,2.48a14.4,14.4,0,0,0-8,8.95c-1.23,4-2.56,8-3.78,12a2.16,2.16,0,0,1-2.4,1.79c-15.55,0-31.11,0-46.67-.05a6.67,6.67,0,0,1-6.56-8.5c1.22-4.81,2.82-9.53,4.35-14.26a6.44,6.44,0,0,1,3.81-4c6.08-2.53,12.11-5.18,18.32-7.39,1.39-.5,2-.23,2.42,1.18,2.17,6.73,4.44,13.43,6.89,20.1C78,180.86,81.12,173.57,76.22,166.84Z" transform="translate(-11.12 -17.52)"/><path class="cls-2" d="M101.77,130.11c0,.77,0,1.55,0,2.31-.09,1.2.2,2,1.56,2.26,1.73.38,2.26,1.84,2.19,3.39a17.33,17.33,0,0,1-1.41,6.53c-.38.84-.86,1.82-1.76,2-1.9.32-2.27,1.78-2.87,3.19-2.39,5.59-6,10.06-11.75,12.53a9.5,9.5,0,0,1-7.71.16c-6.12-2.49-9.88-7.16-12.31-13.08-.51-1.24-.83-2.46-2.51-2.67-.85-.11-1.35-1-1.72-1.73A15.14,15.14,0,0,1,62,137.22c.09-1.24.67-2.34,1.89-2.48,2.27-.25,2-1.68,1.79-3.18a19.16,19.16,0,0,1,1.93-11.41A18.1,18.1,0,0,1,88.07,111a17.91,17.91,0,0,1,13.74,16.79c0,.77,0,1.54,0,2.31Z" transform="translate(-11.12 -17.52)"/></svg>